<svg width="400" height="165" viewBox="0 0 400 165" fill="none" xmlns="http://www.w3.org/2000/svg" role="img" aria-labelledby="title desc">
  <title id="title">Panda2Chan top languages</title>
  <desc id="desc">Top programming languages generated from public source repositories.</desc>
  <style>
    .card { fill: #0d1117; stroke: #30363d; }
    .title { fill: #f0f6fc; font: 700 18px -apple-system, BlinkMacSystemFont, "Segoe UI", sans-serif; }
    .name { fill: #c9d1d9; font: 600 12px -apple-system, BlinkMacSystemFont, "Segoe UI", sans-serif; }
    .percent { fill: #8b949e; font: 600 12px -apple-system, BlinkMacSystemFont, "Segoe UI", sans-serif; }
    .muted { fill: #8b949e; font: 500 11px -apple-system, BlinkMacSystemFont, "Segoe UI", sans-serif; }
  </style>
  <rect class="card" x="0.5" y="0.5" width="399" height="164" rx="10" />
  <text x="24" y="34" class="title">Top Languages</text>
  
    <circle cx="30" cy="58" r="4" fill="#3178c6" />
    <text x="42" y="62" class="name">TypeScript</text>
    <rect x="150" y="51" width="220" height="8" rx="4" fill="#21262d" />
    <rect x="150" y="51" width="182" height="8" rx="4" fill="#3178c6" />
    <text x="372" y="62" class="percent" text-anchor="end">82.9%</text>
    <circle cx="30" cy="76" r="4" fill="#f1e05a" />
    <text x="42" y="80" class="name">JavaScript</text>
    <rect x="150" y="69" width="220" height="8" rx="4" fill="#21262d" />
    <rect x="150" y="69" width="18" height="8" rx="4" fill="#f1e05a" />
    <text x="372" y="80" class="percent" text-anchor="end">8%</text>
    <circle cx="30" cy="94" r="4" fill="#41b883" />
    <text x="42" y="98" class="name">Vue</text>
    <rect x="150" y="87" width="220" height="8" rx="4" fill="#21262d" />
    <rect x="150" y="87" width="8" height="8" rx="4" fill="#41b883" />
    <text x="372" y="98" class="percent" text-anchor="end">3.6%</text>
    <circle cx="30" cy="112" r="4" fill="#563d7c" />
    <text x="42" y="116" class="name">CSS</text>
    <rect x="150" y="105" width="220" height="8" rx="4" fill="#21262d" />
    <rect x="150" y="105" width="6" height="8" rx="4" fill="#563d7c" />
    <text x="372" y="116" class="percent" text-anchor="end">2.9%</text>
    <circle cx="30" cy="130" r="4" fill="#e34c26" />
    <text x="42" y="134" class="name">HTML</text>
    <rect x="150" y="123" width="220" height="8" rx="4" fill="#21262d" />
    <rect x="150" y="123" width="4" height="8" rx="4" fill="#e34c26" />
    <text x="372" y="134" class="percent" text-anchor="end">1.1%</text>
  <text x="24" y="153" class="muted">Public source repositories only</text>
</svg>
